<svg width="50" height="51" viewBox="0 0 50 51" fill="none" xmlns="http://www.w3.org/2000/svg">
<rect y="0.854736" width="50" height="50" rx="12.5" fill="#F5F5F5" fill-opacity="0.1"/>
<rect x="0.625" y="1.47974" width="48.75" height="48.75" rx="11.875" stroke="#F5F5F5" stroke-opacity="0.05" stroke-width="1.25"/>
<path d="M29.0854 33.6406C26.6111 36.9881 25.374 38.6619 24.2198 38.3082C23.0656 37.9545 23.0656 35.9016 23.0657 31.7958L23.0657 31.4088C23.0657 29.9279 23.0657 29.1875 22.5926 28.723L22.5675 28.699C22.0841 28.2443 21.3135 28.2443 19.7722 28.2443C16.9986 28.2443 15.6118 28.2443 15.1431 27.4031C15.1354 27.3892 15.1278 27.3752 15.1205 27.361C14.6781 26.5068 15.481 25.4205 17.0869 23.2477L20.9146 18.0689C23.3888 14.7213 24.6259 13.0475 25.7801 13.4013C26.9343 13.755 26.9343 15.8079 26.9343 19.9136V20.3008C26.9343 21.7816 26.9343 22.5221 27.4075 22.9865L27.4325 23.0106C27.9159 23.4652 28.6865 23.4652 30.2278 23.4652C33.0014 23.4652 34.3882 23.4652 34.8569 24.3064C34.8646 24.3203 34.8722 24.3343 34.8795 24.3485C35.3219 25.2027 34.519 26.2891 32.9131 28.4618" stroke="#FFFF00" stroke-width="1.875" stroke-linecap="round"/>
</svg>
