<svg width="50" height="51" viewBox="0 0 50 51" fill="none" xmlns="http://www.w3.org/2000/svg">
<rect y="0.854736" width="50" height="50" rx="12.5" fill="#F5F5F5" fill-opacity="0.1"/>
<rect x="0.625" y="1.47974" width="48.75" height="48.75" rx="11.875" stroke="#F5F5F5" stroke-opacity="0.05" stroke-width="1.25"/>
<path d="M30 38.3547V27.1047C30 25.337 30 24.4531 29.4508 23.9039C28.9017 23.3547 28.0178 23.3547 26.25 23.3547H23.75C21.9822 23.3547 21.0983 23.3547 20.5492 23.9039C20 24.4531 20 25.337 20 27.1047M20 38.3547V32.1047" stroke="#FFFF00" stroke-width="1.875" stroke-linecap="round"/>
<path d="M20 38.3547C20 36.587 20 35.7031 19.4508 35.1539C18.9017 34.6047 18.0178 34.6047 16.25 34.6047C14.4822 34.6047 13.5983 34.6047 13.0492 35.1539C12.5 35.7031 12.5 36.587 12.5 38.3547" stroke="#FFFF00" stroke-width="1.875" stroke-linecap="round"/>
<path d="M37.5 38.3547V34.6047C37.5 32.837 37.5 31.9531 36.9508 31.4039C36.4017 30.8547 35.5178 30.8547 33.75 30.8547C31.9822 30.8547 31.0983 30.8547 30.5492 31.4039C30 31.9531 30 32.837 30 34.6047V38.3547" stroke="#FFFF00" stroke-width="1.875" stroke-linecap="round"/>
<path d="M23.9324 14.6329C24.4074 13.7808 24.6449 13.3547 25 13.3547C25.3551 13.3547 25.5926 13.7808 26.0676 14.6329L26.1905 14.8533C26.3254 15.0955 26.3929 15.2165 26.4981 15.2964C26.6034 15.3763 26.7344 15.4059 26.9965 15.4653L27.2352 15.5192C28.1576 15.7279 28.6187 15.8323 28.7285 16.1851C28.8382 16.538 28.5238 16.9056 27.895 17.641L27.7323 17.8312C27.5536 18.0401 27.4642 18.1446 27.4241 18.2739C27.3839 18.4031 27.3974 18.5425 27.4244 18.8213L27.449 19.0751C27.544 20.0562 27.5916 20.5467 27.3043 20.7648C27.0171 20.9829 26.5852 20.7841 25.7216 20.3864L25.4982 20.2836C25.2528 20.1706 25.1301 20.1141 25 20.1141C24.8699 20.1141 24.7472 20.1706 24.5018 20.2836L24.2784 20.3864C23.4148 20.7841 22.9829 20.9829 22.6957 20.7648C22.4084 20.5467 22.456 20.0562 22.551 19.0751L22.5756 18.8213C22.6026 18.5425 22.6161 18.4031 22.5759 18.2739C22.5358 18.1446 22.4464 18.0401 22.2677 17.8312L22.105 17.641C21.4762 16.9056 21.1618 16.538 21.2715 16.1851C21.3813 15.8323 21.8424 15.7279 22.7648 15.5192L23.0035 15.4653C23.2656 15.4059 23.3966 15.3763 23.5019 15.2964C23.6071 15.2165 23.6746 15.0955 23.8096 14.8533L23.9324 14.6329Z" stroke="#FFFF00" stroke-width="1.875"/>
</svg>
