<svg width="26" height="27" viewBox="0 0 26 27" fill="none" xmlns="http://www.w3.org/2000/svg">
<path fill-rule="evenodd" clip-rule="evenodd" d="M10.7716 4.50732H15.2271C17.218 4.50731 18.795 4.50729 20.0291 4.67322C21.2992 4.84398 22.3273 5.20378 23.138 6.0145C23.9487 6.82523 24.3085 7.85326 24.4793 9.12338C24.6452 10.3575 24.6452 11.9345 24.6452 13.9254V14.0476C24.6452 16.0385 24.6452 17.6155 24.4793 18.8496C24.3085 20.1197 23.9487 21.1478 23.138 21.9585C22.3273 22.7692 21.2992 23.129 20.0291 23.2998C18.795 23.4657 17.218 23.4657 15.2271 23.4657H10.7716C8.78066 23.4657 7.20372 23.4657 5.96957 23.2998C4.69945 23.129 3.67142 22.7692 2.8607 21.9585C2.04997 21.1478 1.69018 20.1197 1.51941 18.8496C1.35349 17.6155 1.3535 16.0385 1.35352 14.0476V13.9254C1.3535 11.9345 1.35349 10.3575 1.51941 9.12338C1.69018 7.85326 2.04997 6.82523 2.8607 6.0145C3.67142 5.20378 4.69945 4.84398 5.96957 4.67322C7.20372 4.50729 8.78066 4.50731 10.7716 4.50732ZM6.1861 6.28373C5.09617 6.43027 4.46822 6.70508 4.00974 7.16355C3.55127 7.62203 3.27646 8.24998 3.12992 9.33991C2.98024 10.4532 2.97852 11.9208 2.97852 13.9865C2.97852 16.0522 2.98024 17.5198 3.12992 18.6331C3.27646 19.723 3.55127 20.351 4.00974 20.8094C4.46822 21.2679 5.09617 21.5427 6.1861 21.6893C7.2994 21.8389 8.76696 21.8407 10.8327 21.8407H15.166C17.2317 21.8407 18.6993 21.8389 19.8126 21.6893C20.9025 21.5427 21.5305 21.2679 21.989 20.8094C22.4474 20.351 22.7222 19.723 22.8688 18.6331C23.0185 17.5198 23.0202 16.0522 23.0202 13.9865C23.0202 11.9208 23.0185 10.4532 22.8688 9.33991C22.7222 8.24998 22.4474 7.62203 21.989 7.16355C21.5305 6.70508 20.9025 6.43027 19.8126 6.28373C18.6993 6.13405 17.2317 6.13233 15.166 6.13233H10.8327C8.76696 6.13233 7.29941 6.13405 6.1861 6.28373ZM5.87517 9.13301C6.16244 8.78828 6.67477 8.74171 7.0195 9.02898L9.3583 10.978C10.369 11.8202 11.0707 12.4031 11.6631 12.7841C12.2366 13.153 12.6255 13.2768 12.9993 13.2768C13.3732 13.2768 13.7621 13.153 14.3356 12.7841C14.928 12.4031 15.6297 11.8202 16.6404 10.978L18.9792 9.02898C19.3239 8.74171 19.8363 8.78828 20.1235 9.13301C20.4108 9.47773 20.3642 9.99007 20.0195 10.2773L17.64 12.2603C16.6797 13.0605 15.9015 13.7091 15.2146 14.1509C14.499 14.6111 13.8022 14.9018 12.9993 14.9018C12.1965 14.9018 11.4997 14.6111 10.7841 14.1509C10.0972 13.7091 9.31896 13.0605 8.35874 12.2603L5.9792 10.2773C5.63447 9.99007 5.5879 9.47773 5.87517 9.13301Z" fill="#FFFF00"/>
</svg>
