<svg width="26" height="27" viewBox="0 0 26 27" fill="none" xmlns="http://www.w3.org/2000/svg">
<path fill-rule="evenodd" clip-rule="evenodd" d="M3.52148 11.9747C3.52148 6.66746 7.75191 2.34033 13.0007 2.34033C18.2494 2.34033 22.4798 6.66746 22.4798 11.9747C22.4798 14.5369 21.7496 17.2881 20.4588 19.6648C19.1696 22.0387 17.2859 24.1015 14.9295 25.2029C13.7054 25.775 12.2959 25.775 11.0718 25.2029C8.71539 24.1015 6.83174 22.0387 5.5425 19.6648C4.25168 17.2881 3.52148 14.5369 3.52148 11.9747ZM13.0007 3.96533C8.67645 3.96533 5.14648 7.5376 5.14648 11.9747C5.14648 14.2466 5.79934 16.7329 6.9705 18.8893C8.14324 21.0487 9.80051 22.8149 11.7599 23.7308C12.5479 24.0991 13.4534 24.0991 14.2415 23.7308C16.2008 22.8149 17.8581 21.0487 19.0308 18.8893C20.202 16.7329 20.8548 14.2466 20.8548 11.9747C20.8548 7.5376 17.3249 3.96533 13.0007 3.96533ZM13.0007 9.382C11.6545 9.382 10.5632 10.4733 10.5632 11.8195C10.5632 13.1657 11.6545 14.257 13.0007 14.257C14.3468 14.257 15.4382 13.1657 15.4382 11.8195C15.4382 10.4733 14.3468 9.382 13.0007 9.382ZM8.93815 11.8195C8.93815 9.57584 10.757 7.757 13.0007 7.757C15.2443 7.757 17.0632 9.57584 17.0632 11.8195C17.0632 14.0632 15.2443 15.882 13.0007 15.882C10.757 15.882 8.93815 14.0632 8.93815 11.8195Z" fill="#FFFF00"/>
</svg>
