<svg width="26" height="27" viewBox="0 0 26 27" fill="none" xmlns="http://www.w3.org/2000/svg">
<path fill-rule="evenodd" clip-rule="evenodd" d="M6.21106 3.19946C7.52983 1.88817 9.70124 2.12158 10.8055 3.59663L12.1716 5.4214C13.0701 6.62161 12.9908 8.29905 11.9242 9.35954L11.6656 9.61674C11.6543 9.64956 11.6269 9.7527 11.6573 9.94873C11.7258 10.3902 12.0944 11.3266 13.642 12.8654C15.189 14.4036 16.1321 14.7719 16.5798 14.8406C16.7827 14.8717 16.8888 14.8427 16.9217 14.8312L17.3637 14.3917C18.3118 13.449 19.7687 13.2728 20.9426 13.9109L23.0124 15.036C24.7846 15.9995 25.2324 18.4085 23.7804 19.8523L22.2415 21.3824C21.7566 21.8646 21.1045 22.2666 20.3088 22.3408C18.349 22.5235 13.7792 22.2903 8.97779 17.5162C4.49505 13.0589 3.63482 9.17188 3.52598 7.25673L4.33717 7.21063L3.52598 7.25673C3.47094 6.28832 3.92856 5.469 4.51066 4.89021L6.21106 3.19946ZM9.50464 4.57048C8.95579 3.83735 7.93282 3.77905 7.35683 4.35177L5.65643 6.04252C5.29902 6.39791 5.12705 6.78957 5.14836 7.16453C5.23484 8.68617 5.92958 12.1937 10.1236 16.3638C14.5235 20.7388 18.5872 20.8692 20.1579 20.7228C20.4788 20.6929 20.798 20.5262 21.0957 20.2301L22.6346 18.6999C23.2602 18.0779 23.1222 16.9453 22.2363 16.4637L20.1665 15.3386C19.595 15.0279 18.9254 15.1304 18.5094 15.5441L18.016 16.0347L17.4431 15.4585C18.016 16.0347 18.0153 16.0354 18.0145 16.0362L18.0129 16.0378L18.0096 16.041L18.0026 16.0478L17.9867 16.0625C17.9753 16.0729 17.9623 16.0843 17.9475 16.0965C17.9181 16.1209 17.8819 16.1485 17.8387 16.1774C17.7519 16.2355 17.6374 16.2988 17.4935 16.3524C17.2001 16.4617 16.8131 16.5204 16.3334 16.4468C15.3944 16.3028 14.1504 15.6626 12.4962 14.0177C10.8425 12.3734 10.1969 11.1352 10.0515 10.1979C9.97713 9.71853 10.0364 9.33146 10.1471 9.03781C10.2013 8.8939 10.2652 8.77947 10.3238 8.69292C10.3531 8.64976 10.3809 8.61367 10.4055 8.58436C10.4178 8.5697 10.4292 8.55673 10.4397 8.54538L10.4546 8.52958L10.4614 8.52258L10.4646 8.51931L10.4662 8.51773C10.467 8.51695 10.4677 8.51618 11.0406 9.09234L10.4677 8.51618L10.7785 8.20723C11.2428 7.74555 11.3078 6.97914 10.8707 6.39525L9.50464 4.57048Z" fill="#FFFF00"/>
</svg>
