<svg width="50" height="51" viewBox="0 0 50 51" fill="none" xmlns="http://www.w3.org/2000/svg">
<rect y="0.854736" width="50" height="50" rx="12.5" fill="#F5F5F5" fill-opacity="0.1"/>
<rect x="0.625" y="1.47974" width="48.75" height="48.75" rx="11.875" stroke="#F5F5F5" stroke-opacity="0.05" stroke-width="1.25"/>
<path d="M33.7502 29.6047L29.8527 24.6967C29.2557 23.9449 28.9572 23.569 28.6145 23.3858C28.0875 23.1041 27.4579 23.0904 26.9193 23.349C26.5689 23.5171 26.2543 23.8796 25.6252 24.6048C24.9961 25.3299 24.6815 25.6924 24.3311 25.8605C23.7925 26.1191 23.1629 26.1054 22.636 25.8237C22.2933 25.6405 21.9948 25.2646 21.3977 24.5128L17.5 19.6047M37.5 38.3547H25C19.1074 38.3547 16.1612 38.3547 14.3306 36.5242C12.5 34.6936 12.5 31.7473 12.5 25.8547V22.1047M12.5 17.1047V13.3547" stroke="#FFFF00" stroke-width="1.875" stroke-linecap="round"/>
</svg>
