<svg width="50" height="51" viewBox="0 0 50 51" fill="none" xmlns="http://www.w3.org/2000/svg">
<rect y="0.854736" width="50" height="50" rx="12.5" fill="#F5F5F5" fill-opacity="0.1"/>
<rect x="0.625" y="1.47974" width="48.75" height="48.75" rx="11.875" stroke="#F5F5F5" stroke-opacity="0.05" stroke-width="1.25"/>
<path d="M22.2166 25.7353C21.8858 25.3647 21.3171 25.3325 20.9466 25.6634C20.576 25.9943 20.5438 26.5629 20.8747 26.9334L22.2166 25.7353ZM23.259 28.2533L22.588 28.8524C22.7587 29.0435 23.0027 29.1528 23.259 29.1528C23.5152 29.1528 23.7593 29.0435 23.9299 28.8524L23.259 28.2533ZM28.2133 24.055C28.5441 23.6845 28.5119 23.1159 28.1414 22.785C27.7708 22.4541 27.2022 22.4863 26.8713 22.8569L28.2133 24.055ZM20.0644 15.0616L20.3557 15.9126L20.0644 15.0616ZM20.7514 14.8264L20.4601 13.9754L20.46 13.9754L20.7514 14.8264ZM28.3366 14.8264L28.6279 13.9754L28.6279 13.9754L28.3366 14.8264ZM29.0236 15.0616L28.7323 15.9126L29.0236 15.0616ZM27.0643 37.281L27.4244 38.1053L27.0643 37.281ZM22.0237 37.281L22.3837 36.4567L22.0237 37.281ZM34.8852 17.5582L35.6214 17.0414V17.0414L34.8852 17.5582ZM12.8505 23.9557C12.8505 24.4525 13.2532 24.8552 13.75 24.8552C14.2468 24.8552 14.6495 24.4525 14.6495 23.9557H12.8505ZM14.8634 28.0773C14.7662 27.5901 14.2925 27.274 13.8053 27.3712C13.3181 27.4684 13.002 27.9421 13.0992 28.4292L14.8634 28.0773ZM29.8161 36.8522C30.238 36.59 30.3675 36.0354 30.1052 35.6135C29.843 35.1915 29.2884 35.0621 28.8665 35.3243L29.8161 36.8522ZM32.2329 32.3788C31.9253 32.769 31.9923 33.3345 32.3824 33.6421C32.7726 33.9496 33.3382 33.8826 33.6457 33.4925L32.2329 32.3788ZM20.8747 26.9334L22.588 28.8524L23.9299 27.6542L22.2166 25.7353L20.8747 26.9334ZM23.9299 28.8524L28.2133 24.055L26.8713 22.8569L22.588 27.6542L23.9299 28.8524ZM34.4384 23.9557V25.8443H36.2374V23.9557H34.4384ZM20.3557 15.9126L21.0427 15.6775L20.46 13.9754L19.7731 14.2106L20.3557 15.9126ZM28.0453 15.6775L28.7323 15.9126L29.3149 14.2106L28.6279 13.9754L28.0453 15.6775ZM26.7042 36.4567C26.2587 36.6513 26.0014 36.7615 25.715 36.8348C25.4415 36.9048 25.1077 36.9484 24.544 36.9484V38.7474C25.2027 38.7474 25.6964 38.6965 26.1611 38.5776C26.613 38.4619 27.0046 38.2886 27.4244 38.1053L26.7042 36.4567ZM21.6636 38.1053C22.0833 38.2886 22.475 38.4619 22.9268 38.5776C23.3915 38.6965 23.8852 38.7474 24.544 38.7474V36.9484C23.9803 36.9484 23.6465 36.9048 23.3729 36.8348C23.0865 36.7615 22.8292 36.6513 22.3837 36.4567L21.6636 38.1053ZM36.2374 23.9557C36.2374 22.0496 36.2378 20.5817 36.1795 19.5118C36.1503 18.976 36.1051 18.5094 36.0302 18.1204C35.9581 17.7463 35.8433 17.3576 35.6214 17.0414L34.1489 18.0749C34.1468 18.0719 34.163 18.0945 34.1873 18.1628C34.2112 18.2301 34.2378 18.3265 34.2637 18.4608C34.3161 18.7326 34.3558 19.106 34.3832 19.6096C34.4381 20.6185 34.4384 22.0268 34.4384 23.9557H36.2374ZM28.7323 15.9126C30.5464 16.5336 31.8694 16.9868 32.7982 17.3642C33.2619 17.5526 33.5978 17.7104 33.8336 17.8473C33.95 17.9149 34.0303 17.9707 34.0838 18.0143C34.1381 18.0584 34.1522 18.0796 34.1489 18.0749L35.6214 17.0414C35.3969 16.7215 35.0665 16.4829 34.7371 16.2917C34.3948 16.0929 33.9698 15.8983 33.4753 15.6975C32.4881 15.2964 31.1067 14.8239 29.3149 14.2106L28.7323 15.9126ZM21.0427 15.6775C22.979 15.0146 23.7551 14.7608 24.544 14.7608V12.9618C23.3866 12.9618 22.283 13.3514 20.4601 13.9754L21.0427 15.6775ZM28.6279 13.9754C26.8049 13.3514 25.7014 12.9618 24.544 12.9618V14.7608C25.3328 14.7608 26.1089 15.0146 28.0453 15.6775L28.6279 13.9754ZM14.6495 23.9557C14.6495 22.0268 14.6498 20.6185 14.7048 19.6096C14.7322 19.106 14.7719 18.7326 14.8243 18.4608C14.8501 18.3265 14.8767 18.2301 14.9007 18.1628C14.925 18.0945 14.9411 18.0719 14.939 18.0749L13.4665 17.0414C13.2446 17.3576 13.1299 17.7463 13.0578 18.1204C12.9828 18.5094 12.9376 18.976 12.9084 19.5118C12.8502 20.5817 12.8505 22.0496 12.8505 23.9557H14.6495ZM19.7731 14.2106C17.9813 14.8239 16.5998 15.2964 15.6126 15.6975C15.1182 15.8983 14.6931 16.0929 14.3508 16.2917C14.0215 16.4829 13.691 16.7215 13.4665 17.0414L14.939 18.0749C14.9357 18.0796 14.9499 18.0584 15.0041 18.0143C15.0577 17.9707 15.1379 17.9149 15.2543 17.8473C15.4901 17.7104 15.826 17.5526 16.2897 17.3642C17.2186 16.9868 18.5416 16.5336 20.3557 15.9126L19.7731 14.2106ZM22.3837 36.4567C19.6844 35.2776 15.8038 32.7915 14.8634 28.0773L13.0992 28.4292C14.2155 34.0254 18.7929 36.8512 21.6636 38.1053L22.3837 36.4567ZM28.8665 35.3243C28.1085 35.7955 27.3649 36.1681 26.7042 36.4567L27.4244 38.1053C28.1504 37.7881 28.9727 37.3765 29.8161 36.8522L28.8665 35.3243ZM34.4384 25.8443C34.4384 28.6301 33.5135 30.7542 32.2329 32.3788L33.6457 33.4925C35.1553 31.5774 36.2374 29.067 36.2374 25.8443H34.4384Z" fill="#FFFF00"/>
</svg>
