<?xml version="1.0" standalone="no"?>
<!DOCTYPE svg PUBLIC "-//W3C//DTD SVG 20010904//EN"
 "http://www.w3.org/TR/2001/REC-SVG-20010904/DTD/svg10.dtd">
<svg version="1.0" xmlns="http://www.w3.org/2000/svg"
 width="40.000000pt" height="40.000000pt" viewBox="0 0 40.000000 40.000000"
 preserveAspectRatio="xMidYMid meet">

<g transform="translate(0.000000,40.000000) scale(0.100000,-0.100000)"
fill="#000000" stroke="none">
<path d="M100 248 l0 -133 40 -33 39 -33 3 123 c3 110 5 123 21 126 31 6 66
-7 77 -29 14 -26 -11 -69 -40 -69 -17 0 -20 -7 -20 -40 0 -38 2 -40 31 -40 66
0 119 57 119 127 0 50 -18 82 -59 110 -29 20 -47 23 -122 23 l-89 0 0 -132z
m212 73 c35 -39 40 -105 9 -114 -17 -4 -18 -1 -11 17 10 27 -11 80 -35 90 -9
3 -39 6 -66 6 l-49 0 0 -105 c0 -58 -4 -105 -8 -105 -25 0 -32 30 -32 138 l0
115 82 -5 c76 -5 83 -7 110 -37z"/>
<path d="M220 250 c0 -5 7 -10 15 -10 8 0 15 5 15 10 0 6 -7 10 -15 10 -8 0
-15 -4 -15 -10z"/>
</g>
</svg>
